# xmcd
#
# Track frame offsets:
#	150
#	6712
#	15224
#	21601
#	28837
#	35764
#	43376
#	50524
#	58100
#	67251
#	73702
#	81437
#	89914
#	99304
#	108414
#	117226
#	126303
#	135979
#	148130
#	153997
#	165474
#	178000
#
# Disc length: 2425 seconds
#
# Revision: 1
# Processed by: cddbd v1.5.1PL0 Copyright (c) Steve Scherf et al.
# Submitted via: CDex 1.50Beta5
#
DISCID=4b097716
DTITLE=Key - 名称未設定のプレイリスト
DYEAR=1900
DGENRE=Soundtrack
TTITLE0=2 Steps Toward
TTITLE1=木々の声と日々のざわめき
TTITLE2=彼女たちの見解
TTITLE3=笑顔の向こう側に
TTITLE4=The Fox And Grapes
TTITLE5=日溜まりの街
TTITLE6=少女の檻
TTITLE7=雪の少女
TTITLE8=約束
TTITLE9=Pure Snows
TTITLE10=霧海
TTITLE11=朝影
TTITLE12=冬の花火
TTITLE13=生まれたての風
TTITLE14=残光
TTITLE15=凍土高原
TTITLE16=夢の跡
TTITLE17=風を待った日
TTITLE18=兆し
TTITLE19=Last Regrets/彩菜
TTITLE20=風の辿り着く場所/彩菜
TTITLE21=Little Fragments
EXTD=
EXTT0=
EXTT1=
EXTT2=
EXTT3=
EXTT4=
EXTT5=
EXTT6=
EXTT7=
EXTT8=
EXTT9=
EXTT10=
EXTT11=
EXTT12=
EXTT13=
EXTT14=
EXTT15=
EXTT16=
EXTT17=
EXTT18=
EXTT19=
EXTT20=
EXTT21=
PLAYORDER=
